<?xml version="1.0" encoding="UTF-8"?>
<svg width="105px" height="40px" viewBox="0 0 105 40" version="1.1" xmlns="http://www.w3.org/2000/svg" xmlns:xlink="http://www.w3.org/1999/xlink">
    <title>logo-dark</title>
    <g id="Page-1" stroke="none" stroke-width="1" fill="none" fill-rule="evenodd">
        <g id="logo-dark" fill="#FFFFFF" fill-rule="nonzero">
            <g id="XMLID_11_" transform="translate(45.000000, 10.000000)">
                <path d="M0.1,1.2 C0.1,0.8 0.4,0.5 0.8,0.5 L10.2,0.5 C13.7,0.5 15.4,2.8 15.4,5.1 C15.4,6.7 14.7,7.9 13.7,8.6 C13.3,8.9 13.3,9.5 13.7,9.8 C14.9,10.6 15.7,12 15.7,13.6 C15.7,16.2 14,18.5 10.5,18.5 L0.7,18.5 C0.3,18.5 0,18.2 0,17.8 L0.1,1.2 Z M9.2,7.5 C10.1,7.5 10.8,6.8 10.8,5.9 C10.8,5 10.2,4.4 9.2,4.4 L5.4,4.4 C5,4.4 4.7,4.7 4.7,5.1 L4.7,6.8 C4.7,7.2 5,7.5 5.4,7.5 L9.2,7.5 L9.2,7.5 Z M9.4,14.6 C10.5,14.6 11.2,13.9 11.2,13 C11.2,12.1 10.6,11.3 9.4,11.3 L5.5,11.3 C5.1,11.3 4.8,11.6 4.8,12 L4.8,13.9 C4.8,14.3 5.1,14.6 5.5,14.6 L9.4,14.6 Z" id="XMLID_23_"></path>
                <path d="M24,4.9 C27.8,4.9 30.6,7.7 30.6,12.1 L30.6,12.3 C30.6,12.7 30.3,13 29.9,13 L22.4,13 C21.8,13 21.5,13.7 21.8,14.1 C22.3,14.8 23.3,15.3 24.6,15.3 C25.5,15.3 26.5,15 27.2,14.6 C27.5,14.4 27.9,14.5 28.1,14.8 L29.1,16.3 C29.3,16.6 29.2,17.1 28.9,17.3 C27.6,18.2 25.8,18.6 24,18.6 C20,18.6 16.9,16 16.9,11.8 C17.1,8 19.9,4.9 24,4.9 Z M22.3,10.4 L25.7,10.4 C26.2,10.4 26.6,9.8 26.3,9.3 C25.9,8.7 25.2,8.1 24,8.1 C22.8,8.1 22.1,8.6 21.7,9.3 C21.5,9.8 21.8,10.4 22.3,10.4 Z" id="XMLID_20_"></path>
                <path d="M31.3,5.5 L34.1,5.5 C34.4,5.5 34.7,5.7 34.8,6 L36.9,11.9 C37.1,12.5 38,12.5 38.2,11.9 L40.3,6 C40.4,5.7 40.7,5.5 41,5.5 L43.9,5.5 C44.4,5.5 44.7,6 44.5,6.4 L40,18 C39.9,18.3 39.6,18.4 39.4,18.4 L35.9,18.4 C35.6,18.4 35.4,18.2 35.3,18 L30.7,6.4 C30.5,6 30.8,5.5 31.3,5.5 Z" id="XMLID_18_"></path>
                <path d="M48.6,20 C49.5,20 50.1,19.8 50.3,19.3 L50.4,19.1 C50.5,18.8 50.5,18.5 50.4,18.1 L45.8,6.4 C45.6,5.9 46,5.5 46.4,5.5 L49.2,5.5 C49.5,5.5 49.8,5.7 49.9,6 L52,11.9 C52.2,12.5 53.1,12.5 53.3,11.9 L55.4,6 C55.5,5.7 55.8,5.5 56.1,5.5 L59,5.5 C59.5,5.5 59.8,6 59.6,6.4 L54.1,20.3 C53.1,23 51.1,23.7 48.6,23.7 C48.4,23.7 47.9,23.7 47.5,23.6 C47.1,23.6 46.8,23.2 46.9,22.8 L47.3,20.6 C47.4,20.2 47.7,20 48.1,20 C48.4,20 48.5,20 48.6,20 Z" id="XMLID_16_"></path>
            </g>
            <path d="M20.1,0.2 C9.3,0.2 0.7,8.9 0.7,19.7 C0.7,30.4 9.4,39.1 20.2,39.1 C30.9,39.1 39.6,30.4 39.6,19.6 C39.6,8.8 30.8,0.2 20.1,0.2 Z M22,30.8 L12.8,30.8 C12.3,30.8 11.9,30.4 11.9,29.9 L11.9,22.7 C11.9,22.3 12.1,22 12.5,21.8 L16.3,20.3 C16.9,20.1 16.9,19.2 16.3,19 L12.5,17.5 C12.1,17.4 11.9,17 11.9,16.6 L11.9,9.4 C11.9,8.9 12.3,8.5 12.8,8.5 L21.8,8.5 C25.7,8.5 28,10.8 28,14.2 C28,16.3 26.9,17.9 25.5,18.8 C25.1,19 25.1,19.6 25.5,19.8 C27.2,20.7 28.4,22.7 28.4,24.8 C28.4,28.3 26,30.7 22,30.8 Z" id="XMLID_12_"></path>
        </g>
    </g>
</svg>